{
    "asset" : {
        "generator" : "Khronos glTF Blender I/O v3.2.40",
        "version" : "2.0"
    },
    "scene" : 0,
    "scenes" : [
        {
            "name" : "Scene",
            "nodes" : [
                0
            ]
        }
    ],
    "nodes" : [
        {
            "mesh" : 0,
            "name" : "Cube"
        }
    ],
    "materials" : [
        {
            "doubleSided" : true,
            "name" : "Material",
            "pbrMetallicRoughness" : {}
        }
    ],
    "meshes" : [
        {
            "name" : "Cube",
            "primitives" : [
                {
                    "attributes" : {
                        "POSITION" : 0,
                        "NORMAL" : 1,
                        "TEXCOORD_0" : 2,
                        "COLOR_0" : 3
                    },
                    "indices" : 4,
                    "material" : 0
                }
            ]
        }
    ],
    "accessors" : [
        {
            "bufferView" : 0,
            "componentType" : 5126,
            "count" : 108,
            "max" : [
                0.7950636148452759,
                0.9711918234825134,
                2.942075729370117
            ],
            "min" : [
                -0.3547922670841217,
                -0.8206413984298706,
                -2.2157516479492188
            ],
            "type" : "VEC3"
        },
        {
            "bufferView" : 1,
            "componentType" : 5126,
            "count" : 108,
            "type" : "VEC3"
        },
        {
            "bufferView" : 2,
            "componentType" : 5126,
            "count" : 108,
            "type" : "VEC2"
        },
        {
            "bufferView" : 3,
            "componentType" : 5123,
            "count" : 108,
            "normalized" : true,
            "type" : "VEC4"
        },
        {
            "bufferView" : 4,
            "componentType" : 5123,
            "count" : 180,
            "type" : "SCALAR"
        }
    ],
    "bufferViews" : [
        {
            "buffer" : 0,
            "byteLength" : 1296,
            "byteOffset" : 0
        },
        {
            "buffer" : 0,
            "byteLength" : 1296,
            "byteOffset" : 1296
        },
        {
            "buffer" : 0,
            "byteLength" : 864,
            "byteOffset" : 2592
        },
        {
            "buffer" : 0,
            "byteLength" : 864,
            "byteOffset" : 3456
        },
        {
            "buffer" : 0,
            "byteLength" : 360,
            "byteOffset" : 4320
        }
    ],
    "buffers" : [
        {
            "byteLength" : 4680,
            "uri" : "data:application/octet-stream;base64,"
        }
    ]
}
